<?xml version="1.0" encoding="UTF-8" standalone="no"?>
<!-- Created with Inkscape (http://www.inkscape.org/) -->

<svg
   width="210mm"
   height="297mm"
   viewBox="0 0 210 297"
   version="1.1"
   id="svg5"
   inkscape:version="1.1.2 (b8e25be833, 2022-02-05)"
   sodipodi:docname="ic_not_compatible.svg"
   xmlns:inkscape="http://www.inkscape.org/namespaces/inkscape"
   xmlns:sodipodi="http://sodipodi.sourceforge.net/DTD/sodipodi-0.dtd"
   xmlns="http://www.w3.org/2000/svg"
   xmlns:svg="http://www.w3.org/2000/svg">
  <sodipodi:namedview
     id="namedview7"
     pagecolor="#ffffff"
     bordercolor="#666666"
     borderopacity="1.0"
     inkscape:pageshadow="2"
     inkscape:pageopacity="0.0"
     inkscape:pagecheckerboard="0"
     inkscape:document-units="mm"
     showgrid="false"
     inkscape:zoom="0.7198092"
     inkscape:cx="504.99493"
     inkscape:cy="498.04865"
     inkscape:window-width="1920"
     inkscape:window-height="1001"
     inkscape:window-x="-9"
     inkscape:window-y="-9"
     inkscape:window-maximized="1"
     inkscape:current-layer="layer1"
     showborder="false" />
  <defs
     id="defs2" />
  <g
     inkscape:label="Layer 1"
     inkscape:groupmode="layer"
     id="layer1">
    <g
       id="g5094"
       transform="matrix(0.10671466,0,0,0.10667816,102.27281,94.87121)"
       style="fill:#d80000;fill-opacity:1">
      <path
         style="fill:#d80000;fill-opacity:1;stroke-width:0.264583"
         d="m 119.20259,102.26489 c -6.35281,-1.33233 -11.09217,-3.851556 -15.45667,-8.216059 -5.674774,-5.674776 -8.75198,-13.06294 -8.75198,-21.012923 0,-7.949982 3.077206,-15.338149 8.75198,-21.012922 8.35043,-8.35043 20.3794,-10.947748 31.61024,-6.825341 6.64477,2.439041 12.77776,8.019338 16.05604,14.609096 3.51468,7.064945 4.05328,15.452492 1.47599,22.985254 -2.45659,7.179998 -7.99712,13.463135 -14.90018,16.897273 -5.71841,2.844802 -12.84374,3.821742 -18.78542,2.575622 z m 12.55787,-2.911836 c 3.08315,-0.833726 7.5272,-3.126176 10.04056,-5.179401 4.32022,-3.52928 7.87205,-8.948727 9.28241,-14.163262 1.08568,-4.014065 1.08251,-9.945407 -0.007,-13.976101 -0.83374,-3.083151 -3.12619,-7.527195 -5.17941,-10.040565 -3.52184,-4.311113 -8.96463,-7.882297 -14.12629,-9.268695 -4.17886,-1.122424 -9.84359,-1.124572 -14.02292,-0.0053 -3.00721,0.805353 -7.97712,3.401305 -10.37573,5.419594 -4.07433,3.428309 -7.573379,8.878908 -8.9374,13.922117 -1.084225,4.008718 -1.082528,9.932273 0.004,13.976101 0.811498,3.020211 3.40502,7.986152 5.42399,10.385568 3.42831,4.074332 8.87891,7.573386 13.92212,8.937406 4.01406,1.085674 9.94541,1.082514 13.9761,-0.0074 z m -21.11241,-12.248401 -0.85313,-0.880213 6.48977,-6.494275 c 3.56938,-3.571851 6.48978,-6.584267 6.48978,-6.694257 0,-0.10999 -2.9223,-3.124301 -6.49399,-6.69847 l -6.49399,-6.498488 0.8877,-0.887695 0.88769,-0.887695 6.49849,6.493987 c 3.57417,3.571692 6.58848,6.493986 6.69847,6.493986 0.10999,0 3.1243,-2.922294 6.69847,-6.493986 l 6.49849,-6.493987 0.88769,0.887695 0.8877,0.887695 -6.49399,6.498488 c -3.57169,3.574169 -6.49398,6.58848 -6.49398,6.69847 0,0.10999 2.92229,3.124301 6.49398,6.698469 l 6.49399,6.49849 -0.8877,0.887693 -0.88769,0.887696 -6.49849,-6.493987 c -3.57417,-3.571692 -6.58848,-6.493986 -6.69847,-6.493986 -0.10999,0 -3.11903,2.917031 -6.68677,6.482292 -3.56773,3.56526 -6.5057,6.482291 -6.52883,6.482291 -0.0231,0 -0.42596,-0.396097 -0.89519,-0.880213 z"
         id="path5108" />
      <path
         style="fill:#d80000;fill-opacity:1;stroke-width:0.264583"
         d="m 119.86405,102.38453 c -2.72981,-0.49489 -6.13696,-1.58573 -8.20365,-2.626494 -7.1639,-3.607686 -12.865264,-10.197338 -15.183181,-17.548775 -1.960985,-6.219404 -1.960985,-12.127302 0,-18.346705 2.784537,-8.831358 10.276911,-16.323734 19.108271,-19.108271 7.42323,-2.340554 15.56071,-1.794073 22.13794,1.486695 7.18645,3.584656 12.99243,10.251315 15.29991,17.567966 1.96677,6.236321 1.96677,12.217603 0,18.453925 -2.75248,8.727691 -10.31112,16.286406 -19.03754,19.037729 -4.63414,1.46108 -9.83812,1.86052 -14.12175,1.08393 z m 7.38687,-2.23931 c 13.13549,-1.347957 23.26838,-11.446577 24.60771,-24.524478 1.13891,-11.120917 -5.13915,-22.26695 -15.24681,-27.069093 -17.19984,-8.17163 -37.013965,2.967965 -38.952767,21.899425 -1.497355,14.620952 9.531807,28.127362 24.236517,29.680266 1.13824,0.12021 2.20573,0.23439 2.37222,0.25375 0.16648,0.0194 1.50889,-0.0886 2.98313,-0.23987 z M 110.64975,87.107918 c -0.3164,-0.336801 -0.57528,-0.724686 -0.57528,-0.861962 0,-0.137279 2.8575,-3.105237 6.35,-6.595465 3.4925,-3.490227 6.35,-6.466789 6.35,-6.614583 0,-0.147794 -2.8575,-3.124356 -6.35,-6.614583 -3.4925,-3.490226 -6.35,-6.47487 -6.35,-6.632542 0,-0.344115 1.12133,-1.43725 1.47433,-1.43725 0.13727,0 3.10523,2.8575 6.59546,6.35 3.49023,3.4925 6.46679,6.35 6.61458,6.35 0.1478,0 3.12436,-2.8575 6.61459,-6.35 3.49022,-3.4925 6.47487,-6.35 6.63254,-6.35 0.34411,0 1.43725,1.121336 1.43725,1.474328 0,0.137279 -2.8575,3.105238 -6.35,6.595464 -3.4925,3.490227 -6.35,6.466789 -6.35,6.614583 0,0.147794 2.8575,3.124356 6.35,6.614583 3.4925,3.490228 6.35,6.47487 6.35,6.632541 0,0.344117 -1.12134,1.437251 -1.47433,1.437251 -0.13728,0 -3.10524,-2.8575 -6.59546,-6.35 -3.49023,-3.4925 -6.46679,-6.35 -6.61459,-6.35 -0.14779,0 -3.12435,2.8575 -6.61458,6.35 -3.49023,3.4925 -6.47487,6.35 -6.63254,6.35 -0.15767,0 -0.54556,-0.275564 -0.86197,-0.612365 z"
         id="path5106" />
      <path
         style="fill:#d80000;fill-opacity:1;stroke-width:0.264583"
         d="m 119.9785,102.38887 c -4.50124,-0.75665 -9.2397,-2.759321 -12.83751,-5.425665 -3.44075,-2.549948 -7.175282,-6.967746 -9.043537,-10.69813 -1.787803,-3.569743 -3.102108,-9.174697 -3.102108,-13.229167 0,-4.054471 1.314305,-9.659423 3.102108,-13.229167 1.868255,-3.730385 5.602787,-8.148183 9.043537,-10.698129 6.2815,-4.655235 14.52758,-6.680705 22.15926,-5.442937 6.65333,1.079092 12.20736,4.008916 16.91765,8.924277 4.33065,4.519191 6.90352,9.691663 7.91117,15.904548 1.23777,7.631678 -0.7877,15.877764 -5.44293,22.159263 -2.54995,3.440748 -6.96775,7.175278 -10.69813,9.043535 -5.20179,2.605162 -12.25375,3.659102 -18.00951,2.691572 z m 7.50275,-2.24655 c 16.94065,-1.832737 28.24847,-18.550647 23.43491,-34.647037 -4.34792,-14.539268 -19.43841,-22.875817 -33.69794,-18.61599 -7.54175,2.252987 -13.93196,7.660596 -17.04603,14.424917 -5.566824,12.092124 -2.153095,25.68762 8.44707,33.641256 4.27025,3.204107 9.73811,5.100344 15.68699,5.440214 0.33316,0.019 1.76191,-0.0905 3.175,-0.24336 z m -16.75248,-13.223256 -0.76762,-0.801219 6.40666,-6.410661 c 3.52366,-3.525864 6.40666,-6.527938 6.40666,-6.671276 0,-0.143338 -2.88567,-3.148084 -6.41259,-6.677212 l -6.41259,-6.416599 0.85787,-0.857872 0.85787,-0.857871 6.4166,6.412589 c 3.52913,3.526925 6.53387,6.41259 6.67721,6.41259 0.14334,0 3.14809,-2.885665 6.67721,-6.41259 l 6.4166,-6.412589 0.85787,0.857871 0.85788,0.857872 -6.41259,6.416599 c -3.52693,3.529128 -6.41259,6.533874 -6.41259,6.677212 0,0.143338 2.88566,3.148084 6.41259,6.677213 l 6.41259,6.416598 -0.85788,0.857872 -0.85787,0.857872 -6.4166,-6.41259 c -3.52912,-3.526925 -6.53569,-6.41259 -6.68126,-6.41259 -0.14557,0 -3.1203,2.8575 -6.61053,6.35 -3.49023,3.4925 -6.41382,6.35 -6.49687,6.35 -0.0831,0 -0.49643,-0.360548 -0.91862,-0.801219 z"
         id="path5104" />
      <path
         style="fill:#d80000;fill-opacity:1;stroke-width:0.264583"
         d="m 120.92238,102.51349 c -4.23969,-0.54466 -9.08029,-2.39869 -12.7,-4.864313 -9.101489,-6.199634 -14.146478,-16.860763 -13.004203,-27.480635 0.550347,-5.11665 2.11032,-9.471386 4.849213,-13.536801 6.19607,-9.197006 16.8721,-14.285964 27.55882,-13.136498 9.0488,0.973291 16.75449,5.611548 21.82409,13.136498 2.73889,4.065415 4.29886,8.420151 4.84921,13.536801 0.7075,6.577724 -1.0335,13.593974 -4.74917,19.139241 -6.4036,9.556747 -17.43204,14.644027 -28.62796,13.205707 z m 9.26042,-2.735041 c 9.57158,-2.025259 17.25643,-8.805114 20.37577,-17.97625 1.09435,-3.217476 1.41054,-5.182526 1.41054,-8.766291 0,-3.583765 -0.31619,-5.548814 -1.41054,-8.76629 -2.73667,-8.046045 -8.98739,-14.296772 -17.03344,-17.033441 -3.21747,-1.094347 -5.18252,-1.410531 -8.76629,-1.410531 -3.58376,0 -5.54881,0.316184 -8.76629,1.410531 -9.32641,3.172155 -16.212383,11.131758 -18.117234,20.941996 -0.420436,2.165303 -0.420436,7.550167 0,9.715469 1.907044,9.821532 8.789474,17.769382 18.141984,20.950412 1.98152,0.673971 3.41079,0.992447 6.36029,1.417236 1.32755,0.1912 5.97977,-0.0966 7.80521,-0.482841 z m -19.45403,-12.859385 -0.76762,-0.801219 6.40666,-6.410661 c 3.52366,-3.525864 6.40666,-6.527938 6.40666,-6.671276 0,-0.143338 -2.88567,-3.148084 -6.41259,-6.677212 l -6.41259,-6.416599 0.85787,-0.857872 0.85787,-0.857871 6.4166,6.412589 c 3.52913,3.526925 6.53387,6.41259 6.67721,6.41259 0.14334,0 3.14809,-2.885665 6.67721,-6.41259 l 6.4166,-6.412589 0.85787,0.857871 0.85788,0.857872 -6.41259,6.416599 c -3.52693,3.529128 -6.41259,6.533874 -6.41259,6.677212 0,0.143338 2.88566,3.148084 6.41259,6.677213 l 6.41259,6.416598 -0.85788,0.857872 -0.85787,0.857872 -6.4166,-6.41259 c -3.52912,-3.526925 -6.53569,-6.41259 -6.68126,-6.41259 -0.14557,0 -3.1203,2.8575 -6.61053,6.35 -3.49023,3.4925 -6.41382,6.35 -6.49687,6.35 -0.0831,0 -0.49643,-0.360548 -0.91862,-0.801219 z"
         id="path5102" />
      <path
         style="fill:#d80000;fill-opacity:1;stroke-width:0.264583"
         d="m 121.05468,102.49934 c -2.45104,-0.31134 -5.25303,-1.09328 -8.04226,-2.24432 -6.53182,-2.695526 -12.77498,-8.935491 -15.467105,-15.459208 -3.309066,-8.018725 -3.309066,-15.501082 0,-23.519807 2.689715,-6.517888 8.935735,-12.763904 15.453625,-15.453624 8.01872,-3.309066 15.50108,-3.309066 23.51981,0 6.51788,2.68972 12.7639,8.935736 15.45362,15.453624 3.30906,8.018725 3.30906,15.501082 0,23.519807 -2.69213,6.523717 -8.93528,12.763682 -15.46711,15.459208 -5.3292,2.19922 -10.21658,2.90916 -15.45058,2.24432 z m 9.78958,-2.849574 c 8.94062,-2.192324 15.92726,-8.159977 19.16944,-16.37362 1.52997,-3.875985 1.9865,-6.229356 1.9865,-10.240238 0,-9.627036 -4.64578,-17.947385 -13.03237,-23.340285 -1.79794,-1.156144 -5.94173,-2.791358 -8.65274,-3.414527 -2.89452,-0.665353 -8.21797,-0.665353 -11.1125,0 -9.18573,2.111488 -16.40099,8.160495 -19.698608,16.514576 -1.529972,3.875982 -1.986502,6.229353 -1.986502,10.240236 0,9.627037 4.64578,17.947386 13.03238,23.340285 2.54313,1.635331 7.40834,3.307927 11.29857,3.884297 1.68459,0.24958 6.94331,-0.10743 8.99583,-0.610724 z m -20.11551,-12.730723 -0.76764,-0.801238 6.53833,-6.542257 6.53833,-6.542254 -6.54492,-6.54492 -6.54492,-6.544921 0.85857,-0.85857 0.85857,-0.85857 6.54819,6.544263 6.5482,6.544262 6.54492,-6.54492 6.54492,-6.54492 0.85922,0.859227 0.85923,0.859228 -6.54492,6.544921 -6.54492,6.54492 6.54426,6.548191 6.54427,6.548194 -0.85792,0.857912 -0.85791,0.857911 -6.54887,-6.544939 -6.54887,-6.544943 -6.47828,6.482332 c -3.56305,3.565281 -6.54621,6.482331 -6.62924,6.482331 -0.083,0 -0.4964,-0.360558 -0.9186,-0.80124 z"
         id="path5100" />
      <path
         style="fill:#d80000;fill-opacity:1;stroke-width:0.264583"
         d="m 122.37759,102.63796 c -4.41609,-0.44126 -9.36224,-2.02096 -12.7,-4.056137 -5.02393,-3.063314 -9.40433,-7.854714 -11.705525,-12.80383 -0.869313,-1.86961 -2.097745,-5.654231 -2.468767,-7.605919 -0.415416,-2.185215 -0.415416,-8.087117 0,-10.272331 0.371022,-1.951688 1.599454,-5.736311 2.468767,-7.605919 2.694215,-5.794369 8.250325,-11.350481 14.044695,-14.044693 1.86961,-0.869313 5.65423,-2.097745 7.60592,-2.468767 2.18521,-0.415416 8.08711,-0.415416 10.27233,0 1.95169,0.371022 5.73631,1.599454 7.60592,2.468767 5.79436,2.694212 11.35048,8.250324 14.04469,14.044693 0.86931,1.869608 2.09774,5.654231 2.46876,7.605919 0.41542,2.185214 0.41542,8.087116 0,10.272331 -0.37102,1.951688 -1.59945,5.736309 -2.46876,7.605919 -2.69421,5.794367 -8.25033,11.350479 -14.04469,14.044692 -1.88761,0.877685 -5.68494,2.107035 -7.47363,2.419525 -1.84935,0.32309 -6.15012,0.54559 -7.64971,0.39575 z m 6.67814,-2.60209 c 2.38501,-0.419738 6.39687,-1.713212 8.27082,-2.666616 4.51657,-2.297891 9.46775,-7.249065 11.76564,-11.765638 1.74017,-3.420369 3.0503,-8.818303 3.0503,-12.567708 0,-3.749406 -1.31013,-9.14734 -3.0503,-12.567708 -2.29789,-4.516574 -7.24907,-9.467746 -11.76564,-11.765636 -3.42037,-1.740176 -8.8183,-3.050308 -12.56771,-3.050308 -3.7494,0 -9.14734,1.310132 -12.56771,3.050308 -4.51657,2.29789 -9.46774,7.249062 -11.76563,11.765636 -1.740178,3.420368 -3.05031,8.818302 -3.05031,12.567708 0,3.749405 1.310132,9.147339 3.05031,12.567708 1.76175,3.462777 5.20751,7.372948 8.61718,9.778572 2.48839,1.755642 3.74249,2.388608 6.81898,3.441671 4.57572,1.566241 8.91585,1.964921 13.19407,1.212011 z m -18.32698,-13.116827 -0.76764,-0.801238 6.53833,-6.542257 6.53833,-6.542254 -6.54492,-6.54492 -6.54492,-6.544921 0.85857,-0.85857 0.85857,-0.85857 6.54819,6.544263 6.5482,6.544262 6.54492,-6.54492 6.54492,-6.54492 0.85922,0.859227 0.85923,0.859228 -6.54492,6.544921 -6.54492,6.54492 6.54426,6.548191 6.54427,6.548194 -0.85792,0.857912 -0.85791,0.857911 -6.54887,-6.544939 -6.54887,-6.544943 -6.47828,6.482332 c -3.56305,3.565281 -6.54621,6.482331 -6.62924,6.482331 -0.083,0 -0.4964,-0.360558 -0.9186,-0.80124 z"
         id="path5098" />
      <path
         style="fill:#d80000;fill-opacity:1;stroke-width:0.264583"
         d="m 121.8394,102.52704 c -6.71361,-0.66509 -13.10349,-3.719649 -17.97776,-8.593928 -5.691901,-5.691896 -8.655488,-12.846976 -8.655488,-20.897204 0,-8.050228 2.963587,-15.205308 8.655488,-20.897205 5.69189,-5.691898 12.84697,-8.655485 20.8972,-8.655485 8.05023,0 15.20531,2.963587 20.89721,8.655485 5.6919,5.691897 8.65548,12.846977 8.65548,20.897205 0,8.050228 -2.96358,15.205308 -8.65548,20.897204 -6.28812,6.288118 -15.07757,9.459678 -23.81665,8.593928 z m 7.47604,-2.50541 c 4.31833,-0.819169 7.78149,-2.25974 11.18611,-4.653082 3.46404,-2.435108 6.78817,-6.233604 8.66124,-9.897223 1.77318,-3.468243 2.98043,-8.505307 2.98043,-12.435417 0,-3.930109 -1.20725,-8.967175 -2.98043,-12.435417 -2.44202,-4.776455 -7.19207,-9.526511 -11.96853,-11.968532 -3.46824,-1.77318 -8.50531,-2.980426 -12.43542,-2.980426 -3.93011,0 -8.96717,1.207246 -12.43541,2.980426 -4.77646,2.442021 -9.52652,7.192077 -11.96854,11.968532 -2.551942,4.991461 -3.577649,11.742182 -2.581772,16.992018 0.819172,4.318323 2.259742,7.781483 4.653082,11.186107 5.05852,7.195934 13.31575,11.535354 22.10498,11.616804 1.47551,0.0137 3.62843,-0.15453 4.78426,-0.37379 z m -18.57854,-13.094086 -0.75023,-0.783061 6.19546,-6.177209 c 3.40751,-3.397467 6.34958,-6.365473 6.53795,-6.595567 0.29687,-0.362638 -0.47993,-1.240976 -5.83242,-6.594786 -3.3962,-3.397037 -6.31635,-6.364599 -6.48921,-6.594585 -0.25793,-0.343151 -0.17385,-0.55272 0.46875,-1.168375 l 0.78307,-0.75022 6.17721,6.195458 c 3.39746,3.407503 6.36547,6.349579 6.59556,6.537946 0.36264,0.296876 1.24098,-0.479925 6.59479,-5.83242 3.39704,-3.3962 6.3646,-6.316346 6.59458,-6.489212 0.34316,-0.257928 0.55272,-0.173848 1.16838,0.468758 l 0.75022,0.783061 -6.19546,6.177211 c -3.4075,3.397466 -6.34958,6.365472 -6.53795,6.595566 -0.29687,0.362638 0.47993,1.240976 5.83242,6.594788 3.3962,3.397035 6.31635,6.364597 6.48922,6.594583 0.25792,0.343151 0.17384,0.55272 -0.46876,1.168376 l -0.78306,0.750218 -6.17721,-6.195456 c -3.39747,-3.407503 -6.36547,-6.34958 -6.59557,-6.537947 -0.36264,-0.296876 -1.24097,0.479925 -6.59479,5.832419 -3.39703,3.3962 -6.36459,6.316348 -6.59458,6.489213 -0.34315,0.257927 -0.55272,0.173847 -1.16837,-0.468759 z"
         id="path5096" />
    </g>
  </g>
</svg>
